<svg width="41" height="40" viewBox="0 0 41 40" fill="none" xmlns="http://www.w3.org/2000/svg">
<path d="M35.8565 21.95C35.9337 21.325 35.9851 20.675 35.9851 20C35.9851 19.325 35.9337 18.675 35.8308 18.05L40.1766 14.75C40.5623 14.45 40.6652 13.9 40.4338 13.475L36.3194 6.55C36.0622 6.1 35.5222 5.95 35.0594 6.1L29.9421 8.1C28.8621 7.3 27.7306 6.65 26.4706 6.15L25.6991 0.85C25.622 0.35 25.1848 0 24.6705 0H16.4418C15.9275 0 15.516 0.35 15.4389 0.85L14.6674 6.15C13.4074 6.65 12.2502 7.325 11.1959 8.1L6.07867 6.1C5.6158 5.925 5.07579 6.1 4.81864 6.55L0.704258 13.475C0.447109 13.925 0.549969 14.45 0.961407 14.75L5.30722 18.05C5.20436 18.675 5.12722 19.35 5.12722 20C5.12722 20.65 5.17865 21.325 5.28151 21.95L0.935692 25.25C0.549969 25.55 0.447109 26.1 0.678543 26.525L4.79293 33.45C5.05007 33.9 5.59009 34.05 6.05296 33.9L11.1702 31.9C12.2502 32.7 13.3817 33.35 14.6417 33.85L15.4132 39.15C15.516 39.65 15.9275 40 16.4418 40H24.6705C25.1848 40 25.622 39.65 25.6734 39.15L26.4449 33.85C27.7049 33.35 28.8621 32.675 29.9164 31.9L35.0336 33.9C35.4965 34.075 36.0365 33.9 36.2937 33.45L40.408 26.525C40.6652 26.075 40.5623 25.55 40.1509 25.25L35.8565 21.95ZM20.5562 27.5C16.3132 27.5 12.8417 24.125 12.8417 20C12.8417 15.875 16.3132 12.5 20.5562 12.5C24.7991 12.5 28.2706 15.875 28.2706 20C28.2706 24.125 24.7991 27.5 20.5562 27.5Z" fill="#B85526"/>
</svg>
